PathFileType	4	(X/Y/Z)	c:/Users/goper/Files/vsCode/490R/osim_files/C05/C05_Slow_01.trc
DataRate	CameraRate	NumFrames	NumMarkers	Units                	OrigDataRate	OrigDataStartFrame	OrigNumFrames
250.00	250.00	8	36	mm	250.0	1922	3843
                Frame#	Time	LPSIS			LASIS			LTH1			LTH2			LTH3			LTH4			LLFE			LMFE			LSH1			LSH2			LSH3			LSH4			LLMAL			LMMAL			LCAL			LMTP5			LTOE			LMTP1			RPSIS			RASIS			RTH1			RTH2			RTH3			RTH4			RLFE			RMFE			RSH1			RSH2			RSH3			RSH4			RLMAL			RMMAL			RCAL			RMTP1			RTOE			RMTP5		
		X1	Y1	Z1	X2	Y2	Z2	X3	Y3	Z3	X4	Y4	Z4	X5	Y5	Z5	X6	Y6	Z6	X7	Y7	Z7	X8	Y8	Z8	X9	Y9	Z9	X10	Y10	Z10	X11	Y11	Z11	X12	Y12	Z12	X13	Y13	Z13	X14	Y14	Z14	X15	Y15	Z15	X16	Y16	Z16	X17	Y17	Z17	X18	Y18	Z18	X19	Y19	Z19	X20	Y20	Z20	X21	Y21	Z21	X22	Y22	Z22	X23	Y23	Z23	X24	Y24	Z24	X25	Y25	Z25	X26	Y26	Z26	X27	Y27	Z27	X28	Y28	Z28	X29	Y29	Z29	X30	Y30	Z30	X31	Y31	Z31	X32	Y32	Z32	X33	Y33	Z33	X34	Y34	Z34	X35	Y35	Z35	X36	Y36	Z36

1922	7.68400	1368.33435	1034.90833	307.78976	1168.19165	1007.62988	360.95474	1157.41199	695.53339	413.99246	1121.85535	642.17303	405.95605	0.00000	0.00000	0.00000	0.00000	0.00000	0.00000	1040.23279	569.43958	389.05447	1034.22119	557.34326	268.67181	1109.72485	386.66638	398.25870	1101.34595	343.89240	397.48471	1047.88855	392.26816	416.49777	1050.15625	349.43921	412.56543	1048.68689	117.45972	386.01776	1012.52057	130.37315	306.33521	1096.42444	77.33783	327.01080	909.01416	74.92142	429.85590	870.20306	105.26006	372.58011	0.00000	0.00000	0.00000	1363.61475	1047.61584	199.56403	1168.27258	1010.96954	130.12535	1313.14526	671.66479	86.23975	1305.22583	610.96387	100.19799	1237.92029	676.24329	90.62538	1240.25452	614.33130	103.63876	0.00000	0.00000	0.00000	1276.33655	519.01056	121.39790	1387.43835	378.19614	107.29414	1392.96973	330.75064	114.18731	1327.90808	362.60562	116.44596	0.00000	0.00000	0.00000	1430.77942	100.43700	166.27455	1409.66565	108.15928	251.01030	1498.99524	73.32961	213.26367	1281.98523	34.82318	238.53719	1260.90173	57.22089	190.38892	1311.67126	33.10646	126.70241
1923	7.68800	1363.83130	1034.19751	308.27316	1175.35254	1005.39563	361.27972	1155.81970	694.76050	413.97040	1119.84485	640.94440	405.83252	0.00000	0.00000	0.00000	1062.33240	674.85938	404.01923	1037.16931	567.88171	389.25620	1031.77869	556.02325	269.67145	1103.49194	383.76569	398.92514	1094.10217	341.29105	398.03625	1041.78149	390.83109	416.94318	1043.06470	348.02719	412.97220	1035.84399	115.97156	386.34543	999.98987	130.04051	306.48734	1083.08240	75.11523	327.40640	894.37476	76.36677	429.65652	857.02893	108.40574	372.48538	0.00000	0.00000	0.00000	1359.71411	1047.17175	200.06177	1164.62830	1010.54657	130.23770	1310.74451	671.60242	86.27870	1303.05164	610.82257	100.28721	1235.40845	675.79919	90.95158	1238.10303	614.04443	103.80487	0.00000	0.00000	0.00000	1274.76208	518.82819	121.38409	1386.38806	378.33716	107.43546	1392.11536	330.90344	114.33192	1326.93994	362.52408	116.47388	0.00000	0.00000	0.00000	1430.57898	100.61874	166.33388	1409.48621	108.25599	251.08867	1500.92456	75.04212	213.94409	1281.91760	34.79224	238.51915	1260.98645	57.36768	190.33014	1311.63123	33.07091	126.72330
1924	7.69200	1359.75305	1033.70093	308.68326	1168.64331	1005.33948	361.61688	1153.83008	693.64288	413.85471	1118.26208	639.98035	405.66150	0.00000	0.00000	0.00000	1060.15710	672.95709	404.70743	1035.08752	566.36841	389.88168	1029.01343	554.51239	269.86682	1097.44470	381.14197	399.54529	1086.98682	338.84839	398.60239	1036.30774	389.83978	417.76953	1036.05652	346.67133	413.41351	1022.95068	114.92112	386.42322	987.75226	129.88329	306.60526	1071.30359	74.02311	328.11685	880.45233	78.61102	429.47000	844.12189	111.70217	372.30103	0.00000	0.00000	0.00000	1355.84802	1046.74011	200.55179	1161.25220	1010.26764	130.57196	1308.99365	672.10199	85.70063	1300.96167	610.74042	100.32585	1233.08423	675.46851	91.09826	1236.02588	613.75336	103.89806	0.00000	0.00000	0.00000	1273.07239	518.50470	121.46307	1385.29077	378.48322	107.53525	1391.15894	331.05835	114.45450	1325.94116	362.45837	116.53126	0.00000	0.00000	0.00000	1430.38855	100.78947	166.40588	1409.25537	108.35439	251.13818	1500.89270	75.30835	214.01044	1281.81433	34.74939	238.48634	1260.79565	56.90822	190.56906	1311.62402	33.07275	126.71942
1925	7.69600	1355.64966	1033.19141	309.12799	1155.78540	1006.12689	361.79718	1150.62207	691.55676	413.38000	1116.34204	638.36261	405.82904	0.00000	0.00000	0.00000	1058.17957	670.99530	405.49338	1032.59985	564.69604	390.25113	1026.52966	553.06079	270.48407	1091.32031	378.55646	400.23764	1079.89282	336.44870	399.18405	1029.79968	388.31836	417.81122	1029.20300	345.44531	413.86301	1010.29913	113.84267	386.64078	976.11414	130.09727	306.76483	1055.29834	70.52093	327.87210	866.90308	81.09973	429.25137	831.51105	115.22939	372.01797	0.00000	0.00000	0.00000	1351.87976	1046.22375	201.02200	1157.02930	1009.41327	130.65718	1305.90076	671.39105	86.43494	1298.68884	610.55737	100.46378	1230.53552	675.04840	91.40346	1233.74829	613.36627	104.16482	0.00000	0.00000	0.00000	1271.42651	518.25793	121.49625	1384.25891	378.64035	107.66622	1390.31018	331.27710	114.55302	1324.90942	362.40366	116.61201	0.00000	0.00000	0.00000	1430.02185	100.58191	166.59659	1409.06738	108.47478	251.21458	1500.80017	75.59451	214.03508	1281.73987	34.75002	238.45563	1260.66602	56.95775	190.46765	1311.63489	33.05110	126.73697
1926	7.70000	1351.52673	1032.63928	309.53186	1154.23584	1005.01440	361.77557	1148.53516	690.21759	413.30106	1114.42773	636.97168	405.66452	0.00000	0.00000	0.00000	0.00000	0.00000	0.00000	1030.42529	562.99652	390.74677	1023.64294	551.22778	271.55316	1085.71021	376.50888	401.20142	1072.85303	334.23871	399.78149	1023.89783	387.10999	418.31149	1022.40863	344.37180	414.36066	997.96552	113.06450	386.87692	963.75775	130.03125	307.02191	1042.56641	69.01501	328.19824	853.68549	83.87792	429.03903	819.24133	118.88048	371.76062	821.65247	97.75382	325.24994	1347.87256	1045.70276	201.52533	1153.30591	1008.94928	130.80551	1303.43335	671.30841	86.50735	1296.50610	610.44037	100.50652	1228.13013	674.76508	91.52890	1231.54077	612.97778	104.34657	0.00000	0.00000	0.00000	1269.71326	518.11133	121.50854	1383.14282	378.79813	107.78169	1389.36877	331.44379	114.66866	1323.84827	362.35315	116.69775	0.00000	0.00000	0.00000	1429.86536	100.81162	166.64989	1408.87390	108.62476	251.29263	1498.51343	74.24013	213.38420	1281.83838	34.83215	238.51796	1260.62207	56.85625	190.49677	1311.66602	33.06604	126.73220
1927	7.70400	1347.32886	1032.04639	309.99438	1150.11182	1004.44427	361.73105	1146.56738	688.82642	413.31827	1112.91760	635.60229	405.79001	0.00000	0.00000	0.00000	1054.40210	666.96735	407.40167	1028.32336	561.36469	391.28564	1021.93872	549.40417	272.64188	1079.14319	373.71716	401.62500	1065.91138	332.23120	400.39529	1018.92627	386.56329	419.08856	1015.59332	343.40085	414.79123	985.86218	112.61705	386.70667	952.57831	130.73357	307.12341	1028.96558	67.13445	328.43979	840.70825	86.68475	428.61282	807.25946	122.60328	371.32562	809.36121	101.55242	324.84915	1343.91150	1045.23682	202.00627	1149.33997	1008.28497	131.09929	1300.97571	671.21429	86.61954	1294.27991	610.26642	100.58773	1225.74902	674.49280	91.58891	1229.39709	612.65985	104.48675	0.00000	0.00000	0.00000	1268.00220	517.78516	121.52789	1381.99988	379.00763	107.87623	1388.30493	331.65350	114.76432	1322.76099	362.30005	116.77014	0.00000	0.00000	0.00000	1429.59973	101.08077	166.68575	1408.61841	108.79462	251.35509	1498.37891	74.55671	213.40556	1281.93628	34.87779	238.56784	1260.54968	56.77975	190.51677	1311.62097	33.04353	126.76109
1928	7.70800	1343.13940	1031.46948	310.42154	1143.93066	1004.32953	361.91025	1144.88062	687.60883	413.50735	1111.83667	634.52332	406.19351	0.00000	0.00000	0.00000	0.00000	0.00000	0.00000	1026.33350	559.82123	391.74481	1020.27631	547.76929	272.70486	1073.07202	371.49146	402.19653	1058.97009	330.27542	400.96524	1012.41437	385.51932	419.24124	1008.99701	342.52585	415.19479	973.97375	112.23589	386.83438	941.47626	131.20023	307.10172	1016.14655	65.73004	328.61090	828.06659	89.65004	428.09879	795.75568	126.52215	370.91602	797.42596	105.40787	324.21210	1339.88513	1044.69385	202.51315	1146.09290	1008.16199	131.31776	1298.50122	671.10571	86.68090	1292.02307	610.13910	100.70124	1223.32190	674.17633	91.64863	1227.10742	612.24152	104.69154	0.00000	0.00000	0.00000	1266.18347	517.48602	121.58048	1380.82727	379.13940	107.98336	1387.39685	331.83197	114.81823	1321.65076	362.23749	116.81082	0.00000	0.00000	0.00000	1429.39526	101.37339	166.76852	1408.41772	108.98077	251.43385	1498.27393	74.85229	213.46304	1281.86609	34.88606	238.54840	1260.46558	56.69028	190.51483	1311.63306	33.01488	126.75524
1929	7.71200	1338.91003	1030.88550	310.86008	1139.73596	1003.83026	362.40555	1142.89478	686.20715	413.60544	1109.39307	632.48022	406.21094	0.00000	0.00000	0.00000	0.00000	0.00000	0.00000	1024.67761	558.38855	392.49704	1017.60461	546.01385	273.68359	1067.08032	369.45389	402.77353	1052.04578	328.46570	401.45108	1006.78455	384.60287	419.57574	1002.38977	341.79419	415.60614	962.29700	111.91727	386.84872	930.49121	131.54572	306.90186	1003.53961	64.10709	328.47330	815.91254	92.72106	427.61453	784.61560	130.39961	370.26974	785.98022	109.29882	323.55606	1335.89355	1044.14697	203.03079	1141.79175	1007.24304	131.40489	1295.97583	670.99268	86.79121	1289.75500	610.03284	100.75378	1220.84766	673.81805	91.70984	1224.80029	611.81104	104.87526	0.00000	0.00000	0.00000	1264.40039	517.32928	121.55984	1379.63757	379.26398	108.04197	1386.28491	331.95950	114.87421	1320.51245	362.16837	116.81261	0.00000	0.00000	0.00000	1429.23218	101.68761	166.86485	1408.15796	109.12636	251.45596	1498.12500	75.13745	213.49304	1281.79980	34.90326	238.54886	1260.39453	56.62620	190.49835	1311.67053	33.04118	126.75346
